<?xml version="1.0" encoding="UTF-8"?>
<svg id="Layer_2" data-name="Layer 2" xmlns="http://www.w3.org/2000/svg" viewBox="0 0 33.06 72.53">
  <defs>
    <style>
      .cls-1 {
        fill: #fcd700;
      }

      .cls-2 {
        fill: #1b495a;
      }

      .cls-3 {
        fill: #fff200;
      }

      .cls-4 {
        fill: #203a44;
      }

      .cls-5 {
        fill: #f8cc0f;
      }

      .cls-6 {
        fill: #ffe300;
      }

      .cls-7 {
        fill: #f1b51c;
      }
    </style>
  </defs>
  <g id="Layer_1-2" data-name="Layer 1">
    <g>
      <path class="cls-5" d="M29.51,71.91V.62c.57.48.92,1.2.92,2v67.29c0,.8-.36,1.52-.92,2h0Z"/>
      <path class="cls-1" d="M27.81,72.53v-14.56l1.69-.53s0,0,0,0v14.47c-.46.39-1.05.62-1.7.62h0Z"/>
      <path class="cls-6" d="M27.81,72.53h-11.28v-13.6c6.6.11,11.28-.97,11.28-.97v14.56h0Z"/>
      <path class="cls-1" d="M29.51,20.35s0,0,0,0c-.55-.28-1.12-.53-1.69-.76V0c.65,0,1.24.23,1.7.62v19.73h0Z"/>
      <path class="cls-6" d="M27.81,19.59c-.27-.1-.54-.2-.81-.29-.86-.29-1.74-.51-2.63-.67-1.8-.32-4.81-.57-7.84-.49V0h11.28v19.59h0Z"/>
      <path class="cls-7" d="M16.53,58.94v-.53c5.83.18,12.77-.93,12.97-.97l-1.69.53s-4.67,1.08-11.28.97h0Z"/>
      <polygon class="cls-5" points="28.3 44.9 28.3 43.91 29.51 43.08 29.51 44.07 28.3 44.9 28.3 44.9"/>
      <polygon class="cls-4" points="28.3 43.91 28.3 26 29.51 22.39 29.51 43.08 28.3 43.91 28.3 43.91"/>
      <polygon class="cls-4" points="29.51 56 28.3 53.29 28.3 44.9 29.51 44.07 29.51 56 29.51 56"/>
      <polygon class="cls-7" points="29.51 57.44 27.81 53.62 27.81 25.84 29.51 20.35 29.51 22.39 28.3 26 28.3 53.29 29.51 56 29.51 57.44 29.51 57.44"/>
      <path class="cls-7" d="M16.53,18.69v-.55c3.03-.08,6.04.17,7.84.49.89.16,1.77.39,2.63.67.27.09.54.19.81.29.58.22,1.14.48,1.69.76-.15-.06-5.32-2.03-12.97-1.66h0Z"/>
      <path class="cls-2" d="M16.53,58.41v-4.39c4.81-.03,11.28-.4,11.28-.4l1.7,3.83s0,0,0,0c-.2.03-7.14,1.15-12.97.97h0Z"/>
      <path class="cls-2" d="M27.81,25.84s-6.47-.49-11.28-.53v-6.63c7.65-.37,12.82,1.61,12.97,1.66,0,0,0,0,0,0l-1.7,5.49h0Z"/>
      <path class="cls-3" d="M16.53,54.02v-28.7c4.81.04,11.28.53,11.28.53v27.77s-6.47.37-11.28.4h0Z"/>
      <path class="cls-3" d="M30.65,26.21c-1.33,0-1.54.07-1.54-.63s.21-1.27,1.54-1.27,2.41.57,2.41,1.27-1.08.63-2.41.63h0Z"/>
      <path class="cls-1" d="M29.51,23.47l1.64,1.14c.14.1.17.3.06.43h0c-.1.12-.26.14-.39.06l-1.31-.86v-.77h0Z"/>
      <path class="cls-5" d="M3.56,71.91V.62c-.57.48-.92,1.2-.92,2v67.29c0,.8.36,1.52.92,2h0Z"/>
      <path class="cls-1" d="M5.25,72.53v-14.56l-1.69-.53s0,0,0,0v14.47c.46.39,1.05.62,1.7.62h0Z"/>
      <path class="cls-6" d="M5.25,72.53h11.28v-13.6c-6.6.11-11.28-.97-11.28-.97v14.56h0Z"/>
      <path class="cls-1" d="M3.56,20.35s0,0,0,0c.55-.28,1.12-.53,1.69-.76V0c-.65,0-1.24.23-1.7.62v19.73h0Z"/>
      <path class="cls-6" d="M5.25,19.59c.27-.1.54-.2.81-.29.86-.29,1.74-.51,2.63-.67,1.8-.32,4.81-.57,7.84-.49V0H5.25v19.59h0Z"/>
      <path class="cls-7" d="M16.53,58.94v-.53c-5.83.18-12.77-.93-12.97-.97l1.69.53s4.67,1.08,11.28.97h0Z"/>
      <polygon class="cls-5" points="4.76 44.9 4.76 43.91 3.56 43.08 3.56 44.07 4.76 44.9 4.76 44.9"/>
      <polygon class="cls-4" points="4.76 43.91 4.76 26 3.56 22.39 3.56 43.08 4.76 43.91 4.76 43.91"/>
      <polygon class="cls-4" points="3.56 56 4.76 53.29 4.76 44.9 3.56 44.07 3.56 56 3.56 56"/>
      <polygon class="cls-7" points="3.56 57.44 5.25 53.62 5.25 25.84 3.56 20.35 3.56 22.39 4.76 26 4.76 53.29 3.56 56 3.56 57.44 3.56 57.44"/>
      <path class="cls-7" d="M16.53,18.69v-.55c-3.03-.08-6.04.17-7.84.49-.89.16-1.77.39-2.63.67-.27.09-.54.19-.81.29-.58.22-1.14.48-1.69.76.15-.06,5.32-2.03,12.97-1.66h0Z"/>
      <path class="cls-2" d="M16.53,58.41v-4.39c-4.81-.03-11.28-.4-11.28-.4l-1.7,3.83s0,0,0,0c.2.03,7.14,1.15,12.97.97h0Z"/>
      <path class="cls-2" d="M5.25,25.84s6.47-.49,11.28-.53v-6.63c-7.65-.37-12.82,1.61-12.97,1.66,0,0,0,0,0,0l1.7,5.49h0Z"/>
      <path class="cls-3" d="M16.53,54.02v-28.7c-4.81.04-11.28.53-11.28.53v27.77s6.47.37,11.28.4h0Z"/>
      <path class="cls-3" d="M2.41,26.21c1.33,0,1.54.07,1.54-.63s-.21-1.27-1.54-1.27-2.41.57-2.41,1.27,1.08.63,2.41.63h0Z"/>
      <path class="cls-1" d="M3.56,23.47l-1.64,1.14c-.14.1-.17.3-.06.43h0c.1.12.26.14.39.06l1.31-.86v-.77h0Z"/>
      <polygon class="cls-5" points="11.56 41.16 11.56 38.9 21.51 38.9 21.51 41.16 11.56 41.16 11.56 41.16"/>
      <polygon class="cls-2" points="19.15 6.29 20.89 6.29 20.89 8.03 19.15 8.03 19.15 6.29 19.15 6.29"/>
      <polygon class="cls-2" points="17.4 4.54 19.15 4.54 19.15 6.29 17.4 6.29 17.4 4.54 17.4 4.54"/>
      <polygon class="cls-2" points="15.66 6.29 17.4 6.29 17.4 8.03 15.66 8.03 15.66 6.29 15.66 6.29"/>
      <polygon class="cls-2" points="13.92 4.54 15.66 4.54 15.66 6.29 13.92 6.29 13.92 4.54 13.92 4.54"/>
      <polygon class="cls-2" points="12.18 6.29 13.92 6.29 13.92 8.03 12.18 8.03 12.18 6.29 12.18 6.29"/>
      <polygon class="cls-2" points="21.43 11.76 22.21 11.76 22.21 12.3 20.01 12.3 20.01 11.76 20.79 11.76 20.79 9.45 21.43 9.45 21.43 11.76 21.43 11.76"/>
      <path class="cls-2" d="M17.52,10.66l.18.61c.05.17.1.38.14.55h0c.04-.17.08-.39.13-.55l.17-.61h-.63ZM18.24,10.18l.2-.73h.67l-.87,2.86h-.85l-.89-2.86h.7l.22.73h.82Z"/>
      <path class="cls-2" d="M13.66,9.45l.26.52c.11.2.17.35.25.51h0c.06-.17.13-.31.22-.51l.23-.52h.74l-.83,1.45.8,1.41h-.74l-.25-.52c-.08-.17-.15-.31-.22-.47h0c-.07.18-.12.31-.2.47l-.24.52h-.74l.81-1.4-.85-1.46h.75Z"/>
      <polygon class="cls-2" points="10.86 12.3 10.86 9.45 11.5 9.45 11.5 12.3 10.86 12.3 10.86 12.3"/>
      <polygon class="cls-2" points="13.92 66.3 12.18 66.3 12.18 64.55 13.92 64.55 13.92 66.3 13.92 66.3"/>
      <polygon class="cls-2" points="15.66 68.04 13.92 68.04 13.92 66.3 15.66 66.3 15.66 68.04 15.66 68.04"/>
      <polygon class="cls-2" points="17.4 66.3 15.66 66.3 15.66 64.55 17.4 64.55 17.4 66.3 17.4 66.3"/>
      <polygon class="cls-2" points="19.15 68.04 17.4 68.04 17.4 66.3 19.15 66.3 19.15 68.04 19.15 68.04"/>
      <polygon class="cls-2" points="20.89 66.3 19.15 66.3 19.15 64.55 20.89 64.55 20.89 66.3 20.89 66.3"/>
    </g>
  </g>
</svg>